<svg width="800" height="800" viewBox="0 0 800 800" fill="none" xmlns="http://www.w3.org/2000/svg">
<path d="M195.26 371.44V453.94C195.26 455.929 194.47 457.837 193.063 459.243C191.657 460.65 189.749 461.44 187.76 461.44H82.76C80.7709 461.44 78.8632 460.65 77.4567 459.243C76.0502 457.837 75.26 455.929 75.26 453.94V328.94C75.26 326.951 76.0502 325.043 77.4567 323.637C78.8632 322.23 80.7709 321.44 82.76 321.44H145.26V363.94C145.26 365.929 146.05 367.837 147.457 369.243C148.863 370.65 150.771 371.44 152.76 371.44H195.26ZM165.26 383.94C165.265 383.61 165.204 383.283 165.081 382.977C164.957 382.671 164.773 382.393 164.54 382.16C164.307 381.927 164.029 381.743 163.723 381.619C163.417 381.496 163.09 381.435 162.76 381.44H107.76C107.431 381.436 107.104 381.498 106.799 381.622C106.493 381.746 106.216 381.93 105.983 382.163C105.75 382.396 105.566 382.673 105.442 382.979C105.318 383.284 105.256 383.611 105.26 383.94V388.94C105.256 389.269 105.318 389.596 105.442 389.901C105.566 390.207 105.75 390.484 105.983 390.717C106.216 390.95 106.493 391.134 106.799 391.258C107.104 391.382 107.431 391.444 107.76 391.44H162.76C163.09 391.445 163.417 391.384 163.723 391.261C164.029 391.137 164.307 390.953 164.54 390.72C164.773 390.487 164.957 390.209 165.081 389.903C165.204 389.597 165.265 389.27 165.26 388.94V383.94ZM165.26 403.94C165.265 403.61 165.204 403.283 165.081 402.977C164.957 402.671 164.773 402.393 164.54 402.16C164.307 401.927 164.029 401.743 163.723 401.619C163.417 401.496 163.09 401.435 162.76 401.44H107.76C107.431 401.436 107.104 401.498 106.799 401.622C106.493 401.746 106.216 401.93 105.983 402.163C105.75 402.396 105.566 402.673 105.442 402.979C105.318 403.284 105.256 403.611 105.26 403.94V408.94C105.256 409.269 105.318 409.596 105.442 409.901C105.566 410.207 105.75 410.484 105.983 410.717C106.216 410.95 106.493 411.134 106.799 411.258C107.104 411.382 107.431 411.444 107.76 411.44H162.76C163.09 411.445 163.417 411.384 163.723 411.261C164.029 411.137 164.307 410.953 164.54 410.72C164.773 410.487 164.957 410.209 165.081 409.903C165.204 409.597 165.265 409.27 165.26 408.94V403.94ZM165.26 423.94C165.265 423.61 165.204 423.283 165.081 422.977C164.957 422.671 164.773 422.393 164.54 422.16C164.307 421.927 164.029 421.743 163.723 421.619C163.417 421.496 163.09 421.435 162.76 421.44H107.76C107.431 421.436 107.104 421.498 106.799 421.622C106.493 421.746 106.216 421.93 105.983 422.163C105.75 422.396 105.566 422.673 105.442 422.979C105.318 423.284 105.256 423.611 105.26 423.94V428.94C105.256 429.269 105.318 429.596 105.442 429.901C105.566 430.207 105.75 430.484 105.983 430.717C106.216 430.95 106.493 431.134 106.799 431.258C107.104 431.382 107.431 431.444 107.76 431.44H162.76C163.09 431.445 163.417 431.384 163.723 431.261C164.029 431.137 164.307 430.953 164.54 430.72C164.773 430.487 164.957 430.209 165.081 429.903C165.204 429.597 165.265 429.27 165.26 428.94V423.94ZM192.14 361.44H155.26V324.57C156.277 325.192 157.222 325.923 158.08 326.75L190 358.63C190.811 359.488 191.528 360.43 192.14 361.44V361.44Z" fill="white"/>
<path d="M241.91 349.88H258.15V386.67H295.15V349.88H311.4V441.44H295.16V400.84H258.16V441.44H241.91V349.88Z" fill="white"/>
<path d="M329.6 423C329.6 408.27 341.81 400.6 370.04 397.58C369.81 390.18 366.84 384.03 357.55 384.03C350.72 384.03 344.28 387.11 338.23 390.8L332.29 380C339.85 375.24 349.6 371 360.52 371C377.71 371 386.16 381.59 386.16 400.74V441.45H373L371.77 433.83H371.32C365.16 439.1 358.1 443.13 349.98 443.13C337.89 443.12 329.6 435 329.6 423ZM370 423V407.56C351.35 409.91 345.13 414.78 345.13 421.73C345.13 427.8 349.28 430.46 355.04 430.46C360.68 430.46 364.94 427.72 370 423Z" fill="white"/>
<path d="M401 407.11C401 384.21 417.19 370.99 435.5 370.99C442.937 370.931 450.119 373.693 455.6 378.72L447.76 389.19C444.12 386 440.65 384.19 436.34 384.19C425.25 384.19 417.58 393.38 417.58 407.19C417.58 421 425.14 430 435.83 430C441.21 430 446.14 427.37 450.06 424.07L456.61 434.7C450.404 440.163 442.417 443.171 434.15 443.16C415.39 443.12 401 429.91 401 407.11Z" fill="white"/>
<path d="M470.16 342.55H486V404.31H486.45L511.93 372.67H529.57L506 400.67L532 441.44H514.4L496.71 411.59L486 424V441.47H470.16V342.55Z" fill="white"/>
<path d="M544.58 349.88H563L579.19 394.62C581.19 400.45 583.05 406.62 585.07 412.62H585.63C587.63 406.62 589.38 400.47 591.39 394.62L607.24 349.88H625.61V441.44H610.71V399.55C610.71 391.1 612 378.92 612.79 370.43H612.23L604.84 391.71L589.77 432.85H580.14L565 391.71L557.72 370.43H557.16C557.94 378.92 559.23 391.1 559.23 399.55V441.44H544.58V349.88Z" fill="white"/>
<path d="M648.86 349.88H673.27C701.33 349.88 717.9 365 717.9 395.3C717.9 425.6 701.33 441.44 674.11 441.44H648.86V349.88ZM672.21 428.28C690.63 428.28 701.21 417.81 701.21 395.28C701.21 372.75 690.63 363 672.21 363H665.1V428.24L672.21 428.28Z" fill="white"/>
</svg>
