<svg xmlns="http://www.w3.org/2000/svg" viewBox="0 0 720 190"><defs><style>.cls-1{fill:#ff4981;}.cls-2{fill:#bebebe;}.cls-3{fill:#ffc800;}.cls-4{fill:#0089b8;}.cls-5{fill:#b2cc39;}.cls-6{fill:#de3f37;}.cls-7{fill:#00a580;}.cls-8{fill:#f3dc1d;}.cls-9{fill:#0099b4;}</style></defs><title>jsdc工作區域 1 複本 2</title><g id="圖層_1" data-name="圖層 1"><path class="cls-1" d="M220.5,129.5v-1a49.5,49.5,0,0,0,0-99v-1a50.5,50.5,0,0,1,0,101Z"/><path class="cls-2" d="M220.5,104.5v-1a24.5,24.5,0,0,0,0-49v-1a25.5,25.5,0,0,1,0,51Z"/><path class="cls-3" d="M221,129.5H195V28.5h26Zm-25-1h24v-99H196Z"/><path class="cls-3" d="M101,129.5H70V28.5h31Zm-30-1h29v-99H71Z"/><path class="cls-1" d="M63,129.5c-21,0-38-16.82-38-37.5v-.5H70v1H26c.28,19.9,16.77,36,37,36a38.13,38.13,0,0,0,7.4-.73l.2,1A38.63,38.63,0,0,1,63,129.5Z"/><path class="cls-2" d="M70,129.36V91.5h31V92a38.11,38.11,0,0,1-30.4,37.24ZM71,92.5v35.63A37.1,37.1,0,0,0,100,92.5Z"/><path class="cls-4" d="M148.15,129.48a38,38,0,0,1-27.9-12l-.35-.37,13.29-12.28.68.73-12.55,11.6a37.33,37.33,0,0,0,51.75,1.83,35.91,35.91,0,0,0,2.22-51.29L176,67a36.9,36.9,0,0,1-2.28,52.71A38.06,38.06,0,0,1,148.15,129.48Z"/><path class="cls-5" d="M405,67.5,367.25,67V66.5a38,38,0,0,1,38-38v1a37,37,0,0,0-37,36.51L405,66.5Z"/><path class="cls-2" d="M405,104.5h-.5v-76h.5a38,38,0,0,1,0,76Zm.5-75v74a37,37,0,0,0,0-74Z"/><path class="cls-6" d="M443,129.5H367v-26h76Zm-75-1h74v-24H368Z"/><path class="cls-7" d="M163.86,52.38l12.23-11.45-.34-.36a38.31,38.31,0,0,0-53.49-2.25A36.9,36.9,0,0,0,120,91l.73-.68a35.9,35.9,0,0,1,2.22-51.28,37.31,37.31,0,0,1,51.75,1.82l-12,11.24h0l-.52.48.68.73.52-.49h0l.18-.17.34-.32Z"/><path class="cls-2" d="M133.79,105.84,119.63,90.66l42.58-38.5,14.16,15.18ZM121.06,90.72l12.79,13.72,41.09-37.16L162.15,53.56Z"/><path class="cls-4" d="M353.76,36.15A49.73,49.73,0,0,0,304.43,36l-.49-.87a50.71,50.71,0,0,1,50.32.12Z"/><path class="cls-7" d="M303.64,123.58A50.51,50.51,0,0,1,304,35.22l.49.88a49.5,49.5,0,0,0-.33,86.61Z"/><path class="cls-7" d="M328.27,130a50.49,50.49,0,0,1-24.63-6.45l.49-.87a49.25,49.25,0,0,0,48,.17l.48.88A50.39,50.39,0,0,1,328.27,130Z"/><path class="cls-2" d="M303.86,123.7l-.43-.24A50.46,50.46,0,0,1,284,103.79h0a50.58,50.58,0,0,1,19.92-68.54l.44-.24,24.71,45Zm.1-87.33a49.57,49.57,0,0,0-19.08,66.94h0a49.39,49.39,0,0,0,18.61,19L327.93,80Z"/><path class="cls-8" d="M510,96H487A26.54,26.54,0,0,1,460.5,69.49v-14A26.54,26.54,0,0,1,487,29h23A26.54,26.54,0,0,1,536.5,55.51v14A26.54,26.54,0,0,1,510,96ZM487,30A25.55,25.55,0,0,0,461.5,55.51v14A25.55,25.55,0,0,0,487,95h23A25.55,25.55,0,0,0,535.5,69.49v-14A25.55,25.55,0,0,0,510,30Z"/><path class="cls-9" d="M510,130H487a26.54,26.54,0,0,1-26.51-26.51v-14A26.54,26.54,0,0,1,487,63h23A26.54,26.54,0,0,1,536.5,89.51v14A26.54,26.54,0,0,1,510,130ZM487,64A25.55,25.55,0,0,0,461.5,89.51v14A25.55,25.55,0,0,0,487,129h23a25.55,25.55,0,0,0,25.51-25.51v-14A25.55,25.55,0,0,0,510,64Z"/><path class="cls-2" d="M510,113H487A26.54,26.54,0,0,1,460.5,86.49v-14A26.54,26.54,0,0,1,487,46h23A26.54,26.54,0,0,1,536.5,72.51v14A26.54,26.54,0,0,1,510,113ZM487,47A25.55,25.55,0,0,0,461.5,72.51v14A25.55,25.55,0,0,0,487,112h23A25.55,25.55,0,0,0,535.5,86.49v-14A25.55,25.55,0,0,0,510,47Z"/><path class="cls-2" d="M601.5,130h-39V29h39Zm-38-1h37V30h-37Z"/><path class="cls-6" d="M601.5,130H573.92l27.58-27.58Zm-25.16-1H600.5V104.84Z"/><path class="cls-5" d="M562.5,77.58V29h39v9.58Zm1-47.58V75.16l37-37V30Z"/><path class="cls-9" d="M663.5,130c-21,0-38-16.82-38-37.5h1c0,20.13,16.6,36.5,37,36.5s37-16.37,37-36.5h1C701.5,113.18,684.45,130,663.5,130Z"/><path class="cls-8" d="M675,80H652c-14.62,0-26.51-9.07-26.51-20.21V49.21C625.5,38.07,637.39,29,652,29h23c14.62,0,26.51,9.07,26.51,20.21V59.79C701.5,70.93,689.61,80,675,80ZM652,30C638,30,626.5,38.62,626.5,49.21V59.79C626.5,70.38,638,79,652,79h23c14.06,0,25.51-8.62,25.51-19.21V49.21C700.5,38.62,689.05,30,675,30Z"/><path class="cls-2" d="M670.5,129.86V29H675c14.62,0,26.51,9.07,26.51,20.21V92.5a38.11,38.11,0,0,1-30.4,37.24Zm1-99.86v98.63a37.1,37.1,0,0,0,29-36.13V49.21C700.5,38.62,689.05,30,675,30Z"/></g></svg>