<svg id="圖層_1" data-name="圖層 1" xmlns="http://www.w3.org/2000/svg" viewBox="0 0 720 190"><defs><style>.cls-1{fill:#ffc800;}.cls-2{fill:#ff4981;}.cls-3{fill:#67696a;}.cls-4{fill:#0089b8;}.cls-5{fill:#00a580;}.cls-6{fill:#f3dc1d;}.cls-7{fill:#0099b4;}.cls-8{fill:#de3f37;}.cls-9{fill:#b2cc39;}</style></defs><title>jsdc工作區域 1</title><rect class="cls-1" x="190" y="27.5" width="25" height="100"/><path class="cls-2" d="M215,127.5a50,50,0,0,0,0-100"/><path class="cls-3" d="M215,102.5a25,25,0,0,0,0-50"/><rect class="cls-1" x="65" y="27.5" width="30" height="100"/><path class="cls-2" d="M20,90.5c0,20.43,16.79,37,37.5,37S95,110.93,95,90.5"/><path class="cls-3" d="M65,127.25A37.52,37.52,0,0,0,95,90.5H65Z"/><path class="cls-4" d="M298,120.32a50,50,0,1,1,50-86.6"/><path class="cls-5" d="M346.33,121.32a50,50,0,0,1-48.12-87.66"/><path class="cls-3" d="M278.44,101.55A49.77,49.77,0,0,0,297.68,121L322.5,78,298.16,33.69A50,50,0,0,0,278.44,101.55Z"/><rect class="cls-6" x="455" y="27.5" width="75" height="66" rx="26.01" ry="26.01"/><rect class="cls-7" x="455" y="61.5" width="75" height="66" rx="26.01" ry="26.01"/><rect class="cls-3" x="455" y="44.5" width="75" height="66" rx="26.01" ry="26.01"/><rect class="cls-3" x="557" y="27.5" width="38" height="100"/><polygon class="cls-8" points="595 127.5 595 101.63 569.13 127.5 595 127.5"/><polygon class="cls-9" points="557 74.37 595 36.37 595 27.5 557 27.5 557 74.37"/><path class="cls-7" d="M620,90.5c0,20.43,16.79,37,37.5,37s37.5-16.57,37.5-37"/><path class="cls-6" d="M669,27.5H646c-14.3,0-26,8.87-26,19.71V57.79c0,10.84,11.71,19.71,26,19.71h23c14.3,0,26-8.87,26-19.71V47.21C695,36.37,683.29,27.5,669,27.5Z"/><path class="cls-3" d="M669,27.5h-4v99.75A37.52,37.52,0,0,0,695,90.5V47.21C695,36.37,683.29,27.5,669,27.5Z"/><polygon class="cls-3" points="170.16 65.81 128.32 103.64 114.84 89.19 156.68 51.36 170.16 65.81"/><path class="cls-5" d="M169.89,39.41a37.78,37.78,0,0,0-52.8-2.22,36.42,36.42,0,0,0-2.25,52"/><path class="cls-4" d="M170.16,65.81a36.42,36.42,0,0,1-2.25,52,37.78,37.78,0,0,1-52.8-2.22"/><path class="cls-9" d="M362.25,65a37.5,37.5,0,0,1,75,0"/><path class="cls-3" d="M399.5,27.5a37.5,37.5,0,0,1,0,75"/><rect class="cls-8" x="362" y="102.5" width="75" height="25"/></svg>